<?xml version="1.0" standalone="no"?>
<!DOCTYPE svg PUBLIC "-//W3C//DTD SVG 1.1//EN" "http://www.w3.org/Graphics/SVG/1.1/DTD/svg11.dtd" >
<svg xmlns="http://www.w3.org/2000/svg">
<metadata>
This is a custom SVG webfont generated by Font Squirrel.
Copyright   :  2009 Copyright by Line to All rights reserved
Designer    : Laurenz Brunner
Foundry     : Andreas Eigendorf www.efont.de
Foundry URL : http://www.lineto.com
</metadata>
<defs>
<font id="AkkuratLightItalic" horiz-adv-x="1167" >
<font-face units-per-em="2048" ascent="1604" descent="-444" />
<missing-glyph horiz-adv-x="436" />
<glyph unicode=" "  horiz-adv-x="436" />
<glyph unicode="&#x09;" horiz-adv-x="436" />
<glyph unicode="&#xa0;" horiz-adv-x="436" />
<glyph unicode="!" horiz-adv-x="624" d="M135 0l29 156h155l-28 -156h-156zM258 465l74 590l71 397h132l-72 -397l-135 -590h-70z" />
<glyph unicode="&#x22;" horiz-adv-x="892" d="M285 887l26 311l45 254h125l-45 -254l-86 -311h-65zM594 887l27 311l45 254h125l-46 -254l-86 -311h-65z" />
<glyph unicode="#" horiz-adv-x="1562" d="M115 406l16 92h270l134 428h-263l17 92h276l129 405h92l-129 -405h443l129 405h94l-129 -405h264l-16 -92h-279l-133 -428h270l-16 -92h-285l-129 -406h-92l129 406h-442l-129 -406h-94l129 406h-256zM494 498h442l135 428h-442z" />
<glyph unicode="$" d="M61 438q0 6 1 18.5t1 18.5h101v-29q0 -143 80 -228t211 -107l104 594l-94 30q-262 88 -262 312q0 152 96 253q139 147 365 148h26l33 190h84l-35 -202q143 -31 237.5 -134.5t94.5 -254.5q0 -20 -2 -35h-98v20q0 123 -69 201t-181 104l-99 -557l88 -28q125 -41 207 -128 t82 -210q0 -160 -106 -271q-137 -139 -379 -139h-27l-33 -184h-84l35 192q-207 33 -305 178q-72 109 -72 248zM305 1057q0 -166 189 -226l84 -26l94 545h-23q-166 0 -266 -103q-78 -81 -78 -190zM537 102h12h7q143 0 256 76q116 78 116 223q0 92 -61.5 157t-153.5 95l-74 25 z" />
<glyph unicode="%" horiz-adv-x="1890" d="M199 1020q0 113 35.5 213t118.5 173t198 73q131 0 207 -88t76 -222q0 -174 -93.5 -313t-261.5 -139q-129 0 -204.5 87t-75.5 216zM254 35l1309 1438l61 -56l-1313 -1442zM291 1028q0 -100 50 -159.5t148 -59.5q123 0 186.5 111.5t63.5 246.5q0 100 -50 159.5t-148 59.5 q-123 0 -186.5 -111.5t-63.5 -246.5zM1040 276q0 113 36 213.5t119 173t198 72.5q131 0 206.5 -88t75.5 -221q0 -174 -93 -313.5t-261 -139.5q-129 0 -205 87t-76 216zM1133 285q0 -100 50 -159.5t148 -59.5q123 0 186.5 111.5t63.5 246.5q0 100 -50 159.5t-149 59.5 q-123 0 -186 -111.5t-63 -246.5z" />
<glyph unicode="&#x26;" horiz-adv-x="1468" d="M131 307q0 264 262 412l127 72l-82 112q-72 100 -71 215q0 154 105.5 258.5t283.5 104.5q125 0 216 -81t91 -204q0 -184 -186 -307q-59 -39 -215 -121l307 -436q49 68 83.5 158t46.5 146l34 177h253l-14 -92h-155q-57 -313 -193 -467l182 -254h-123l-120 172 q-207 -201 -467 -201q-152 0 -258.5 98.5t-106.5 237.5zM238 319q0 -117 75.5 -181t192.5 -64q229 0 399 176l-334 467l-127 -72q-96 -55 -151 -140.5t-55 -185.5zM469 1135q0 -98 57 -181l82 -116l185 104q168 94 168 238q0 92 -63.5 149t-152.5 57q-119 0 -197.5 -69 t-78.5 -182z" />
<glyph unicode="'" horiz-adv-x="489" d="M248 887l26 311l45 254h125l-45 -254l-86 -311h-65z" />
<glyph unicode="(" horiz-adv-x="591" d="M133 487q0 133 21 244q43 244 173 473.5t320 378.5l55 -59q-371 -336 -452 -809q-23 -121 -23 -256q0 -336 170 -658l-69 -39q-195 315 -195 725z" />
<glyph unicode=")" horiz-adv-x="591" d="M-111 -176q371 336 453 809q23 121 23 256q0 336 -170 657l69 37q195 -315 195 -723q0 -133 -21 -244q-43 -244 -173 -473t-320 -379z" />
<glyph unicode="*" horiz-adv-x="1089" d="M197 1094l41 88l321 -123l39 366h104l-59 -366l361 121l18 -93l-369 -104l176 -293l-90 -57l-155 305l-267 -303l-69 61l274 293z" />
<glyph unicode="+" horiz-adv-x="1394" d="M147 573v93h502v526h96v-526h502v-93h-502v-563h-96v563h-502z" />
<glyph unicode="," horiz-adv-x="546" d="M2 -188q76 25 106.5 65.5t45.5 122.5h-107l33 184h182l-33 -184q-20 -109 -63 -166t-141 -84z" />
<glyph unicode="-" horiz-adv-x="882" d="M125 571l16 95h580l-16 -95h-580z" />
<glyph unicode="." horiz-adv-x="536" d="M49 0l31 184h182l-33 -184h-180z" />
<glyph unicode="/" horiz-adv-x="806" d="M-84 -27l899 1506h103l-900 -1506h-102z" />
<glyph unicode="0" d="M100 438q0 131 33 314q23 131 47.5 225t84 208.5t141.5 176.5q115 88 266 88q195 0 305 -141q90 -117 90 -322q0 -131 -33 -313q-23 -131 -47 -225.5t-83.5 -209t-141.5 -176.5q-119 -90 -266 -90q-193 0 -303 142q-93 118 -93 323zM201 436q0 -217 114 -305 q76 -59 193 -59q125 0 223 94q59 57 103.5 157.5t61.5 174t36 184.5q35 193 35 307q0 199 -99 291q-78 74 -209 74q-111 0 -202 -78q-66 -55 -114 -157.5t-67.5 -180.5t-39.5 -195q-35 -192 -35 -307z" />
<glyph unicode="1" d="M303 1028l23 123l411 272h92l-249 -1423h-103l225 1288z" />
<glyph unicode="2" d="M57 0l19 113l719 694q168 164 168 317q0 111 -74 170.5t-187 59.5q-127 0 -217 -88t-110 -211h-107q31 170 152 282.5t291 112.5q150 0 252 -87t102 -233q0 -197 -205 -389l-674 -643h709l-16 -98h-822z" />
<glyph unicode="3" d="M70 362q0 18 4 60h100q-2 -18 -2 -53q0 -141 87 -219t230 -78q158 0 253.5 97t95.5 255q0 125 -79 196.5t-206 71.5h-74l17 99h75q156 0 256.5 78.5t100.5 230.5q0 115 -83 183.5t-202 68.5q-131 0 -226 -80t-118 -207h-111q33 174 159 279.5t300 105.5q160 0 273.5 -92 t113.5 -248q0 -133 -82 -238.5t-213 -136.5q98 -43 150.5 -127t52.5 -192q0 -201 -135 -322t-330 -121q-174 0 -290.5 105.5t-116.5 283.5z" />
<glyph unicode="4" d="M43 326l18 112l754 985h121l-762 -995h557l78 440h104l-77 -440h198l-16 -102h-199l-59 -326h-105l60 326h-672z" />
<glyph unicode="5" d="M113 362q0 20 4 62h104q-2 -14 -2 -45q0 -143 87 -226t233 -83q139 0 237 102q129 129 129 342q0 143 -77.5 226t-219.5 83q-184 0 -293 -131l-116 47l159 684h752l-16 -96h-656l-129 -539q111 131 309 132q182 0 287 -106.5t105 -289.5q0 -283 -181 -440 q-131 -113 -294 -113q-215 0 -330 133q-92 106 -92 258z" />
<glyph unicode="6" d="M123 459q0 111 31 295q74 426 258 585q127 111 284 111q162 0 271.5 -98.5t109.5 -257.5h-106q0 123 -79 190.5t-204 67.5q-129 0 -225 -97q-141 -141 -207 -524q57 88 152.5 140.5t199.5 52.5q182 0 291 -108.5t109 -289.5q0 -221 -133.5 -387t-350.5 -166 q-154 0 -260 97q-141 127 -141 389zM233 406q0 -152 84 -242q86 -92 218 -92q170 0 269 133t99 309q0 143 -81 229t-224 86q-166 0 -265.5 -127.5t-99.5 -295.5z" />
<glyph unicode="7" d="M123 0l878 1325h-778l17 98h888l-18 -108l-870 -1315h-117z" />
<glyph unicode="8" d="M76 348q0 145 92 261t233 151q-78 41 -125 123t-47 172q0 172 131.5 283.5t307.5 111.5q162 0 278.5 -94t116.5 -252q0 -133 -80 -240.5t-209 -134.5q94 -41 146.5 -131t52.5 -197q0 -190 -140.5 -309t-334.5 -119q-174 0 -298 101.5t-124 273.5zM182 358 q0 -131 94.5 -210.5t229.5 -79.5q152 0 258 97t106 247q0 135 -96 211.5t-235 76.5q-152 0 -254.5 -95t-102.5 -247zM336 1047q0 -117 90 -189t211 -72q139 0 230 88.5t91 227.5q0 117 -91 187.5t-210 70.5q-137 0 -229 -88t-92 -225z" />
<glyph unicode="9" d="M98 338v16h107v-14q0 -111 78 -188q80 -80 213 -80q131 0 223 96q57 59 99 164.5t57.5 174t35.5 189.5q-49 -86 -147 -140t-203 -54q-172 0 -284.5 108.5t-112.5 288.5q0 254 160 418q129 133 321 133q135 0 236 -70q74 -51 112 -133q53 -109 54 -256q0 -123 -35 -319 q-23 -131 -44.5 -218t-74.5 -200t-129 -178q-119 -102 -277 -103q-174 0 -286 117q-103 109 -103 248zM266 911q0 -143 81 -229t224 -86q164 0 264.5 132t100.5 302q0 145 -79 234.5t-222 89.5q-137 0 -236 -99q-133 -133 -133 -344z" />
<glyph unicode=":" horiz-adv-x="598" d="M94 0l33 176h170l-33 -176h-170zM242 848l32 176h170l-32 -176h-170z" />
<glyph unicode=";" horiz-adv-x="598" d="M51 -178q72 23 101.5 62.5t42.5 115.5h-101l31 174h170l-31 -174q-18 -102 -59 -156.5t-133 -79.5zM242 848l32 176h170l-32 -176h-170z" />
<glyph unicode="&#x3c;" horiz-adv-x="995" d="M102 623l670 669l62 -63l-607 -606l609 -609l-62 -61z" />
<glyph unicode="=" horiz-adv-x="1415" d="M215 279v94h956v-94h-956zM215 764v94h956v-94h-956z" />
<glyph unicode="&#x3e;" horiz-adv-x="995" d="M166 14l608 609l-606 606l61 63l670 -669l-672 -670z" />
<glyph unicode="?" horiz-adv-x="995" d="M109 1083q31 178 156.5 286t305.5 108q225 0 332 -150q68 -94 68 -199q0 -254 -289 -403q-104 -55 -151.5 -124t-65.5 -183l-109 -2q29 162 90.5 243.5t206.5 161.5q201 109 201 303q0 119 -84 183.5t-207 64.5q-135 0 -228 -77.5t-116 -211.5h-110zM258 0l27 160h159 l-26 -160h-160z" />
<glyph unicode="@" horiz-adv-x="1908" d="M174 545q0 186 67.5 356t185.5 298t289 204t365 76q285 0 483.5 -182.5t198.5 -462.5q0 -127 -47 -263.5t-137 -226.5q-115 -115 -264 -115q-70 0 -120 45t-52 115q-39 -74 -117 -116t-162 -42q-125 0 -194.5 87.5t-69.5 201.5q0 205 121 361.5t315 156.5 q70 0 128.5 -38.5t78.5 -96.5l47 117h76l-135 -541q-8 -37 -8 -57q0 -106 100 -106.5t184 77.5q78 74 119 194t41 238q0 248 -173 403.5t-423 155.5q-233 0 -417.5 -120.5t-281 -311t-96.5 -407.5q0 -281 180.5 -457t461.5 -176q258 0 495 121l-16 -96q-205 -117 -479 -117 q-328 0 -536 199.5t-208 525.5zM700 524q0 -86 45.5 -146.5t133.5 -60.5q92 0 165.5 74t107.5 164t40 172v25q0 86 -43 142t-127 56q-141 0 -231.5 -139.5t-90.5 -286.5z" />
<glyph unicode="A" horiz-adv-x="1245" d="M-113 0l809 1452h103l303 -1452h-105l-79 383h-703l-211 -383h-117zM272 483h625l-170 822z" />
<glyph unicode="B" horiz-adv-x="1351" d="M92 0l258 1452h514q162 0 279 -83t117 -239q0 -137 -80 -246.5t-207 -131.5q100 -35 155.5 -115t55.5 -186q0 -219 -149.5 -335t-377.5 -116h-565zM217 100h408q199 0 324.5 83t125.5 266q0 94 -53 154.5t-126 82t-165 21.5h-407zM342 809h408q399 0 399 311 q0 119 -89 175.5t-214 56.5h-408z" />
<glyph unicode="C" horiz-adv-x="1255" d="M92 506q0 219 64.5 442t191.5 355q170 176 400 176q207 0 337 -138q135 -141 136 -337h-111q0 158 -102 266q-98 104 -267 104q-172 0 -309 -137q-113 -113 -171 -322.5t-58 -410.5q0 -211 125 -330q102 -96 266 -96q160 0 278 112q100 94 136 228h110 q-35 -160 -153 -283q-158 -162 -379 -162q-217 0 -353 140q-141 145 -141 393z" />
<glyph unicode="D" horiz-adv-x="1368" d="M92 0l258 1452h465q215 0 334 -134t119 -353q0 -233 -74 -470t-221 -360q-166 -135 -395 -135h-486zM217 104h379q174 0 303 107q125 102 191.5 319.5t66.5 419.5q0 182 -88 290t-266 108h-365z" />
<glyph unicode="E" horiz-adv-x="1263" d="M92 0l258 1452h920l-19 -102h-813l-94 -533h721l-18 -104h-721l-109 -611h823l-18 -102h-930z" />
<glyph unicode="F" horiz-adv-x="1183" d="M92 0l258 1452h903l-18 -102h-797l-100 -562h723l-17 -102h-722l-123 -686h-107z" />
<glyph unicode="G" horiz-adv-x="1366" d="M92 506q0 219 64.5 442t191.5 355q170 176 404 176q219 0 346 -133q131 -137 131 -326h-111q0 150 -98 254q-90 96 -275 96q-180 0 -313 -133q-113 -113 -171 -322.5t-58 -410.5q0 -209 125 -328q104 -98 266 -98q152 0 266 96q158 131 217 473h-428l19 103h530 l-131 -750h-82l19 197q-68 -104 -180.5 -164t-239.5 -60q-213 0 -351 142q-141 145 -141 391z" />
<glyph unicode="H" horiz-adv-x="1466" d="M92 0l258 1452h107l-113 -635h811l113 635h106l-258 -1452h-106l127 713h-811l-127 -713h-107z" />
<glyph unicode="I" horiz-adv-x="550" d="M92 0l258 1452h109l-258 -1452h-109z" />
<glyph unicode="J" horiz-adv-x="1034" d="M-23 342q0 27 9 80h108q-8 -49 -8 -72q0 -129 71.5 -200.5t202.5 -71.5q125 0 210 94t110 234l184 1046h107l-191 -1071q-31 -174 -145.5 -291t-288.5 -117q-168 0 -268.5 102.5t-100.5 266.5z" />
<glyph unicode="K" horiz-adv-x="1333" d="M92 0l258 1452h107l-160 -895l956 895h136l-578 -543l369 -909h-115l-336 834l-459 -433l-71 -401h-107z" />
<glyph unicode="L" horiz-adv-x="1105" d="M92 0l258 1452h107l-240 -1352h754l-19 -100h-860z" />
<glyph unicode="M" horiz-adv-x="1806" d="M92 0l258 1452h139l308 -1292l757 1292h160l-258 -1452h-106l233 1298l-758 -1278h-94l-309 1268l-223 -1288h-107z" />
<glyph unicode="N" horiz-adv-x="1511" d="M92 0l258 1452h111l624 -1284l228 1284h106l-258 -1452h-110l-625 1288l-227 -1288h-107z" />
<glyph unicode="O" horiz-adv-x="1343" d="M92 506q0 211 69.5 443.5t194.5 361.5q162 168 392 168q215 0 354 -144q141 -143 141 -397q0 -213 -67.5 -440.5t-192.5 -356.5q-162 -168 -391 -168q-217 0 -356 144q-144 147 -144 389zM203 504q0 -211 125 -326q106 -100 268 -100q174 0 303 129q111 111 172.5 327 t61.5 406q0 219 -123 334q-106 100 -267 100q-174 0 -303 -129q-111 -111 -174 -331t-63 -410z" />
<glyph unicode="P" horiz-adv-x="1259" d="M92 0l258 1452h498q178 0 297 -101.5t119 -277.5q0 -238 -156 -357.5t-399 -119.5h-404l-106 -596h-107zM324 698h403q190 0 307 94.5t117 280.5q0 135 -91 206t-231 71h-391z" />
<glyph unicode="Q" horiz-adv-x="1343" d="M94 506q0 211 69.5 443.5t194.5 361.5q162 168 392 168q215 0 354 -144q141 -143 141 -397q0 -213 -67.5 -440.5t-192.5 -356.5l-39 -37l103 -153l-78 -55l-101 153q-127 -76 -276 -76q-217 0 -356 144q-144 147 -144 389zM205 504q0 -211 125 -326q106 -100 268 -100 q117 0 213 59l-184 279l80 55l182 -276l12 12q111 111 172.5 327t61.5 406q0 219 -123 334q-106 100 -267 100q-174 0 -303 -129q-111 -111 -174 -331t-63 -410z" />
<glyph unicode="R" horiz-adv-x="1343" d="M92 0l258 1452h506q180 0 306 -93t126 -267q0 -184 -99 -302t-271 -153l202 -637h-114l-201 618h-496l-110 -618h-107zM326 717h424q182 0 304 89t122 267q0 139 -93.5 209t-236.5 70h-408z" />
<glyph unicode="S" horiz-adv-x="1261" d="M55 426v39h111v-31q0 -176 116.5 -267t295.5 -91q158 0 281.5 85t123.5 236q0 199 -229 262l-262 72q-127 35 -207 117t-80 207q0 160 106 270q147 154 389 154q219 0 359 -144q115 -115 115 -311h-109q0 139 -82 233q-106 119 -299 119q-178 0 -285 -106 q-84 -88 -84 -203q0 -180 207 -236l264 -71q152 -41 231 -135.5t79 -212.5q0 -178 -117 -291q-152 -147 -404 -148q-305 0 -440 193q-80 113 -80 260z" />
<glyph unicode="T" horiz-adv-x="1091" d="M141 1350l19 102h1030l-19 -102h-462l-240 -1350h-107l240 1350h-461z" />
<glyph unicode="U" horiz-adv-x="1419" d="M152 416q0 49 10 116l164 920h106l-162 -922q-10 -61 -10 -110q0 -168 96 -256q98 -88 258 -88q188 0 312 123q123 119 159 331l164 922h107l-164 -920q-45 -250 -180 -393q-160 -166 -406 -166q-188 0 -325 119q-129 117 -129 324z" />
<glyph unicode="V" horiz-adv-x="1157" d="M131 1452h107l231 -1298l684 1298h117l-778 -1452h-99z" />
<glyph unicode="W" horiz-adv-x="1763" d="M209 1452h98l53 -1298l594 1276h97l163 -1276l496 1298h102l-561 -1452h-112l-162 1272l-594 -1272h-117z" />
<glyph unicode="X" horiz-adv-x="1171" d="M-82 0l608 735l-348 717h109l309 -635l534 635h123l-604 -717l346 -735h-112l-305 649l-537 -649h-123z" />
<glyph unicode="Y" horiz-adv-x="1083" d="M100 1452h109l305 -772l576 772h118l-655 -877l-102 -575h-107l102 575z" />
<glyph unicode="Z" horiz-adv-x="1222" d="M-27 0l21 115l1098 1237h-869l19 100h995l-20 -115l-1100 -1237h907l-18 -100h-1033z" />
<glyph unicode="[" horiz-adv-x="653" d="M70 -236l315 1797h360l-14 -84h-270l-287 -1629h270l-14 -84h-360z" />
<glyph unicode="\" horiz-adv-x="808" d="M156 1479h88l383 -1506h-88z" />
<glyph unicode="]" horiz-adv-x="653" d="M-115 -236l15 84h270l287 1629h-271l15 84h360l-315 -1797h-361z" />
<glyph unicode="^" horiz-adv-x="1046" d="M158 829l327 650h113l324 -650h-113l-268 547l-271 -547h-112z" />
<glyph unicode="_" horiz-adv-x="1081" d="M-53 0h950v-88h-950v88z" />
<glyph unicode="`" horiz-adv-x="493" d="M154 1354l65 86l283 -238l-43 -53z" />
<glyph unicode="a" horiz-adv-x="1148" d="M57 406q0 143 47.5 278t137.5 229q137 137 325 138q113 0 194 -63.5t107 -137.5l50 174h90l-183 -1024h-84l19 176q-39 -84 -132 -143.5t-198 -59.5q-90 0 -169 42t-128 112q-76 109 -76 279zM160 416q0 -133 51 -219q72 -123 229 -123q117 0 215 98q80 80 124 203 t44 239q0 156 -57 236q-74 100 -213 100q-141 0 -238 -100q-74 -74 -114.5 -192.5t-40.5 -241.5z" />
<glyph unicode="b" horiz-adv-x="1165" d="M72 0l262 1479h102l-106 -596q39 76 133 122t186 46q176 0 278.5 -133.5t102.5 -315.5q0 -160 -48 -297t-161.5 -234.5t-277.5 -97.5q-90 0 -171 45t-128 121q-23 37 -31 66l-51 -205h-90zM254 412q0 -143 82 -240.5t221 -97.5q127 0 215 85t122 197.5t34 235.5 q0 150 -77 255t-220 105q-102 0 -189 -67q-188 -145 -188 -473z" />
<glyph unicode="c" horiz-adv-x="1024" d="M57 395q0 152 49.5 293t147.5 234q133 129 309 129q160 0 264 -101q106 -102 107 -258v-14h-109v6q0 111 -75 190q-76 76 -199 76q-129 0 -229 -100q-80 -78 -120 -201t-40 -250q0 -164 100 -254q78 -72 199 -71q102 0 184 62.5t119 162.5h108q-41 -143 -156.5 -234.5 t-260.5 -91.5q-168 0 -277 109q-121 116 -121 313z" />
<glyph unicode="d" horiz-adv-x="1165" d="M57 406v8q0 88 9 133q47 279 229 416q119 88 254 88q127 0 219 -68t115 -166l116 662h105l-266 -1479h-88l18 176l-4 -12q-45 -90 -135 -140.5t-189 -50.5q-176 0 -279.5 127.5t-103.5 305.5zM160 416q0 -147 76.5 -244.5t222.5 -97.5q98 0 186 67q190 143 191 471 q0 150 -77 244t-224 94q-102 0 -195 -76q-131 -109 -170 -333q-10 -53 -10 -125z" />
<glyph unicode="e" horiz-adv-x="1077" d="M57 422q0 311 179 491q137 137 329 138q164 0 275 -111q119 -119 118 -317q0 -41 -16 -136h-782q-2 -20 -2 -59q0 -172 92 -270q80 -84 221 -84q98 0 184 58t121 149h109q-18 -94 -113 -185q-129 -123 -311 -123q-174 0 -285 117q-119 125 -119 332zM174 582h680 q2 14 2 43q0 143 -81 235t-222 92q-152 0 -268 -131q-80 -92 -111 -239z" />
<glyph unicode="f" horiz-adv-x="704" d="M94 930l17 94h206l33 188q20 119 98 191t197 72q78 0 191 -35l-17 -92q-109 35 -176 34q-160 0 -192 -182l-31 -176h319l-16 -94h-322l-163 -930h-103l164 930h-205z" />
<glyph unicode="g" horiz-adv-x="1005" d="M-57 -160q0 111 82 193q49 49 110 65q-80 53 -80 140q0 123 162 200q-88 88 -88 215q0 172 116.5 286t289.5 114q135 0 235 -70q72 135 213 135q31 0 59 -8l-14 -90q-33 8 -53 8q-47 0 -86 -28.5t-58 -73.5q72 -84 72 -201q0 -170 -117.5 -280.5t-289.5 -110.5 q-115 0 -207 51q-53 -16 -94 -53t-41 -84q0 -78 100 -92l336 -41q115 -14 190.5 -78t75.5 -180q0 -104 -72 -181q-131 -139 -385 -139q-250 0 -370 111q-86 77 -86 192zM37 -145q0 -76 57 -134q92 -90 309 -90q195 0 293 97q57 57 58 125q0 147 -197 170l-315 36 q-29 0 -49 -8q-156 -57 -156 -196zM229 662q0 -115 80 -179q70 -57 193 -57q127 0 213 82t86 209q0 111 -80 177.5t-193 66.5q-127 0 -213 -86t-86 -213z" />
<glyph unicode="h" horiz-adv-x="1187" d="M72 0l262 1479h102l-110 -629q72 92 163 143q104 57 218 58q139 0 220 -83t81 -214q0 -37 -7 -78l-120 -676h-103l119 674q6 35 6 65q0 94 -53 152.5t-162 58.5q-168 0 -279.5 -131t-142.5 -307l-92 -512h-102z" />
<glyph unicode="i" horiz-adv-x="493" d="M72 0l182 1024h108l-184 -1024h-106zM285 1309l24 143h144l-25 -143h-143z" />
<glyph unicode="j" horiz-adv-x="495" d="M-299 -377l18 101q94 -51 168 -52q127 0 158 172l211 1180h104l-215 -1200q-45 -250 -245 -250q-109 0 -199 49zM287 1309l24 143h144l-25 -143h-143z" />
<glyph unicode="k" horiz-adv-x="1091" d="M72 0l262 1479h104l-188 -1065l674 610h139l-432 -395l299 -629h-119l-264 551l-326 -297l-45 -254h-104z" />
<glyph unicode="l" horiz-adv-x="550" d="M98 150q0 37 4 55l228 1274h102l-227 -1270q-4 -29 -4 -41q0 -82 94 -82q37 0 100 23l-16 -97q-57 -25 -105 -24q-78 0 -127 43t-49 119z" />
<glyph unicode="m" horiz-adv-x="1783" d="M72 0l182 1024h90l-20 -176q53 86 146 144.5t194 58.5q141 0 217 -76q59 -59 63 -146q55 92 155.5 157t215.5 65q139 0 214 -73t75 -198q0 -43 -11 -104l-118 -676h-103l117 670q10 55 10 92q0 193 -201 192q-96 0 -194 -75q-143 -115 -180 -328l-99 -551h-102l117 670 q8 43 8 92q0 193 -201 192q-100 0 -192 -73q-141 -115 -189 -369l-92 -512h-102z" />
<glyph unicode="n" horiz-adv-x="1187" d="M72 0l182 1024h90l-20 -186q59 96 166.5 154.5t216.5 58.5q139 0 220 -83t81 -214q0 -37 -7 -78l-120 -676h-103l119 674q6 35 6 65q0 94 -53 152.5t-162 58.5q-168 0 -279.5 -131t-142.5 -307l-92 -512h-102z" />
<glyph unicode="o" horiz-adv-x="1093" d="M57 401q0 164 57.5 312.5t174.5 240.5q125 96 278 97q184 0 295 -136q96 -119 96 -292q0 -164 -57 -312.5t-174 -240.5q-125 -96 -278 -97q-184 0 -295 136q-97 118 -97 292zM162 408q0 -137 69 -230q84 -104 228 -104q113 0 211 80q90 76 137 202.5t47 259.5 q0 137 -68 228q-86 106 -229 106q-113 0 -211 -80q-90 -76 -137 -202.5t-47 -259.5z" />
<glyph unicode="p" d="M-2 -410l254 1434h90l-14 -135q49 74 142 118t181 44q176 0 278.5 -134.5t102.5 -314.5q0 -160 -48 -297t-161.5 -234.5t-277.5 -97.5q-90 0 -172 45t-129 121q-31 61 -33 68l-111 -617h-102zM256 412q0 -143 82 -240.5t221 -97.5q127 0 215 85t122 197.5t34 235.5 q0 150 -77 255t-220 105q-102 0 -189 -67q-188 -145 -188 -473z" />
<glyph unicode="q" horiz-adv-x="1159" d="M57 406q0 170 57.5 318t180.5 239q119 88 254 88q125 0 217 -69t115 -165l47 207h90l-254 -1434h-102l94 533q-49 -72 -133 -111t-179 -39q-176 0 -281.5 127.5t-105.5 305.5zM160 416q0 -147 78.5 -245.5t224.5 -98.5q100 0 188 67q184 139 185 473q0 150 -77 244 t-224 94q-102 0 -195 -76q-90 -74 -135 -199.5t-45 -258.5z" />
<glyph unicode="r" horiz-adv-x="778" d="M72 0l184 1024h90l-24 -199q49 100 148 154.5t216 54.5q33 0 98 -12l-18 -102q-66 16 -98 16q-111 0 -199 -66.5t-135 -160t-68 -201.5l-94 -508h-100z" />
<glyph unicode="s" horiz-adv-x="1021" d="M35 303q0 4 1 14.5t1 14.5h104v-19q0 -94 62 -151q92 -90 256 -90q137 0 223 84q53 51 53 131q0 119 -153 166l-191 55q-111 33 -168 84q-68 61 -67 153q0 119 86 201q109 104 286 105q158 0 261.5 -83t103.5 -233h-105q0 109 -78.5 165t-193.5 56q-133 0 -207 -77 q-49 -49 -49 -117q0 -53 31 -88q29 -35 131 -66l188 -55q117 -33 173.5 -102.5t56.5 -155.5q0 -135 -99 -221q-117 -100 -292 -101q-209 0 -330 125q-84 88 -84 205z" />
<glyph unicode="t" horiz-adv-x="753" d="M84 930l16 94h205l51 283l107 28l-55 -311h317l-16 -94h-318l-112 -641q-8 -49 -9 -76q0 -131 146 -131q76 0 188 49l-18 -98q-86 -47 -187 -47q-102 0 -167.5 54t-65.5 157q0 49 8 88l115 645h-205z" />
<glyph unicode="u" horiz-adv-x="1171" d="M109 268q0 27 8 80l119 676h104l-119 -670q-6 -37 -6 -69q0 -94 51 -152.5t158 -58.5q168 0 275.5 130t138.5 308l90 512h102l-180 -1024h-90l18 186q-59 -96 -161.5 -154.5t-210.5 -58.5q-139 0 -218 81t-79 214z" />
<glyph unicode="v" horiz-adv-x="958" d="M74 1024h108l189 -879l485 879h115l-570 -1024h-104z" />
<glyph unicode="w" horiz-adv-x="1519" d="M135 1024h98l62 -901l459 887h108l148 -879l381 893h96l-436 -1024h-117l-146 877l-454 -877h-127z" />
<glyph unicode="x" horiz-adv-x="964" d="M-88 0l463 524l-273 500h115l234 -432l391 432h127l-455 -500l274 -524h-114l-234 451l-399 -451h-129z" />
<glyph unicode="y" horiz-adv-x="980" d="M-156 -365l17 93q88 -61 157 -62q59 0 98.5 31t73.5 90l119 209l-235 1028h108l201 -909l504 909h110l-723 -1288q-90 -164 -247 -164q-103 0 -183 63z" />
<glyph unicode="z" horiz-adv-x="991" d="M-12 0l20 115l785 813h-641l18 96h760l-21 -113l-784 -813h653l-18 -98h-772z" />
<glyph unicode="{" horiz-adv-x="714" d="M113 614l16 97q90 10 160.5 59t85.5 131l63 367q23 125 116 209t226 84h54l-15 -86h-53q-96 0 -156.5 -57.5t-77.5 -149.5l-63 -367q-16 -96 -77.5 -158.5t-158.5 -80.5q68 -18 111 -72.5t43 -126.5q0 -12 -4 -41l-64 -367q-4 -33 -4 -49q0 -72 42 -115t122 -43h53 l-14 -86h-53q-115 0 -180.5 60.5t-65.5 167.5q0 31 6 65l64 367q2 10 2 31q0 70 -51 111.5t-127 49.5z" />
<glyph unicode="|" horiz-adv-x="524" d="M219 -236v1795h86v-1795h-86z" />
<glyph unicode="}" horiz-adv-x="714" d="M-119 -238l15 86h53q100 0 158.5 56.5t74.5 150.5l64 367q14 92 79.5 158.5t155.5 83.5q-63 16 -107 73.5t-44 128.5q0 23 2 35l63 367q6 31 6 59q0 147 -165 148h-54l15 86h53q113 0 179.5 -57.5t66.5 -166.5q0 -33 -7 -69l-63 -367q-2 -10 -2 -31q0 -68 51 -109.5 t127 -49.5l-16 -97q-88 -8 -160 -59t-86 -133l-64 -367q-51 -293 -342 -293h-53z" />
<glyph unicode="~" horiz-adv-x="1265" d="M147 614q152 125 289 125q76 0 195 -58t184 -58q98 0 215 88l51 -74q-154 -127 -286 -127q-74 0 -193 61.5t-186 61.5q-98 0 -215 -94z" />
<glyph unicode="&#xa1;" horiz-adv-x="624" d="M57 -418l72 398l135 589h70l-74 -589l-72 -398h-131zM274 879l29 155h156l-29 -155h-156z" />
<glyph unicode="&#xa2;" d="M145 600q0 152 49.5 293t147.5 233q125 121 287 129l35 197h84l-35 -201q119 -14 202 -96q106 -102 107 -258v-14h-109v6q0 115 -75 190q-55 55 -144 72l-155 -872h10q3 0 6 -1q99 0 178 62q82 63 119 164h109q-41 -143 -157 -234.5t-261 -91.5h-21l-33 -178h-83l34 190 q-98 23 -174 97q-121 116 -121 313zM250 604q0 -164 100 -254q49 -41 107 -59l153 862q-113 -10 -200 -98q-80 -78 -120 -201t-40 -250z" />
<glyph unicode="&#xa3;" d="M12 0l21 113q166 12 198 188l74 412h-170l17 92h170l40 237q35 203 150 307.5t287 104.5q145 0 229 -91t84 -218q0 -16 -4 -49h-100q2 12 2 39q0 100 -58.5 162.5t-167.5 62.5q-143 0 -219 -92t-100 -230l-41 -233h373l-17 -92h-372l-76 -422q-27 -150 -129 -187v-4h493 q111 0 177.5 61.5t87.5 157.5h96q-31 -158 -132.5 -238.5t-246.5 -80.5h-666z" />
<glyph unicode="&#xa4;" d="M80 63l164 144q-113 133 -113 311q0 176 107 305l-158 138l82 81l137 -159q119 100 285 100q162 0 284 -100l136 159l81 -81l-157 -138q109 -131 108 -305q0 -180 -112 -311l161 -144l-81 -79l-142 163q-123 -96 -278 -96q-162 0 -281 96l-141 -163zM227 518 q0 -156 101.5 -265.5t255 -109.5t255 109.5t101.5 265.5q0 154 -101.5 263.5t-255 109.5t-255 -109.5t-101.5 -263.5z" />
<glyph unicode="&#xa5;" d="M53 272l15 84h344l37 207l-3 4h-342l15 82h295l-305 774h104l301 -757l565 757h115l-580 -774h338l-14 -82h-385l-2 -4l-37 -207h387l-14 -84h-387l-49 -272h-103l49 272h-344z" />
<glyph unicode="&#xa6;" horiz-adv-x="536" d="M219 -102v651h98v-651h-98zM219 897v657h98v-657h-98z" />
<glyph unicode="&#xa7;" horiz-adv-x="1112" d="M63 -188q0 12 11 73h102q-6 -33 -6 -69q0 -102 60.5 -160.5t164.5 -58.5q102 0 174 66.5t72 168.5q0 86 -68 164l-352 407q-82 94 -82 201q0 113 61.5 198t168.5 132q-63 92 -64 186q0 141 106.5 237.5t254.5 96.5q141 0 232 -85t91 -224q0 -35 -6 -72h-106q6 33 6 68 q0 102 -61.5 159.5t-164.5 57.5q-98 0 -171.5 -68.5t-73.5 -167.5q0 -88 67 -166l352 -405q82 -94 82 -201q0 -113 -61 -200t-166 -134q61 -88 62 -182q0 -143 -108 -238.5t-253 -95.5q-141 0 -232.5 85.5t-91.5 226.5zM238 618q0 -78 61 -149l334 -385q182 74 182 252 q0 78 -61 149l-332 385q-184 -76 -184 -252z" />
<glyph unicode="&#xa8;" horiz-adv-x="591" d="M141 1276l23 129h123l-23 -129h-123zM518 1276l23 129h125l-23 -129h-125z" />
<glyph unicode="&#xa9;" horiz-adv-x="1798" d="M154 725q0 313 216 533.5t529 220.5t529.5 -220.5t216.5 -533.5t-216.5 -532.5t-529.5 -219.5t-529 219.5t-216 532.5zM252 725q0 -276 186.5 -467.5t461 -191.5t460.5 191.5t186 467.5q0 279 -186 471.5t-460.5 192.5t-461 -192.5t-186.5 -471.5zM555 727 q0 166 100.5 288t262.5 122q133 0 227 -81t104 -220h-104q-8 92 -70.5 147t-156.5 55q-121 0 -188.5 -93t-67.5 -218q0 -150 73 -238q63 -74 176 -73q94 0 160 55t74 147h104q-10 -137 -107.5 -219t-230.5 -82q-156 0 -256 113q-100 115 -100 297z" />
<glyph unicode="&#xaa;" horiz-adv-x="999" d="M195 870q0 102 70.5 164t187.5 70l286 20v74q0 176 -204 176q-94 0 -152.5 -44t-65.5 -128h-81q8 119 89 184.5t210 65.5q209 0 266 -145q20 -55 20 -150v-354q0 -45 11.5 -64.5t48.5 -19.5q12 0 22 2v-72q-20 -4 -39 -4q-121 0 -125 143q-31 -68 -105.5 -113.5 t-166.5 -45.5q-119 0 -195.5 64t-76.5 177zM279 870q0 -80 53 -122.5t141 -42.5q133 0 199.5 92t66.5 217v35l-280 -17q-86 -4 -133 -47t-47 -115z" />
<glyph unicode="&#xab;" horiz-adv-x="1069" d="M102 604l406 438l57 -49l-348 -397l209 -395l-72 -49zM526 604l406 438l57 -49l-348 -397l209 -395l-72 -49z" />
<glyph unicode="&#xac;" horiz-adv-x="1265" d="M127 571v95h950v-422h-96v327h-854z" />
<glyph unicode="&#xad;" horiz-adv-x="882" d="M125 571l16 95h580l-16 -95h-580z" />
<glyph unicode="&#xae;" horiz-adv-x="1792" d="M147 725q0 313 216.5 532.5t529.5 219.5t529 -219.5t216 -532.5t-216 -532.5t-529 -219.5t-529.5 219.5t-216.5 532.5zM246 725q0 -276 186 -467.5t460.5 -191.5t461 191.5t186.5 467.5q0 279 -186.5 470t-461 191t-460.5 -191t-186 -470zM645 328v805h281 q127 0 197.5 -74t70.5 -180q0 -78 -40 -139.5t-116 -90.5l148 -321h-111l-135 301h-199v-301h-96zM741 727h183q86 0 129 45t43 108.5t-42 108.5t-128 45h-185v-307z" />
<glyph unicode="&#xaf;" horiz-adv-x="602" d="M143 1221l17 96h536l-16 -96h-537z" />
<glyph unicode="&#xb0;" horiz-adv-x="972" d="M215 1140.5q0 139.5 100.5 240t239.5 100.5t238.5 -100.5t99.5 -240t-99.5 -239.5t-238.5 -100t-239.5 100t-100.5 239.5zM309 1140.5q0 -104.5 71 -177t175 -72.5t174 72.5t70 177t-70 177.5t-174 73t-175 -73t-71 -177.5z" />
<glyph unicode="&#xb1;" horiz-adv-x="1163" d="M123 0v90h868v-90h-868zM123 721v90h387v391h96v-391h385v-90h-385v-404h-96v404h-387z" />
<glyph unicode="&#xb2;" horiz-adv-x="843" d="M154 719l12 76l373 295q115 88 114 170q0 47 -33.5 81.5t-95.5 34.5q-80 0 -131 -47t-63 -123h-99q20 115 102.5 188.5t207.5 73.5q86 0 148.5 -58t62.5 -136q0 -47 -13.5 -85t-50.5 -77t-54.5 -54.5t-72.5 -58.5l-246 -190h385l-14 -90h-532z" />
<glyph unicode="&#xb3;" horiz-adv-x="921" d="M205 920q0 6 1 14t1 14h94q0 -4 -1 -12t-1 -12q0 -68 49 -108t121 -40q92 0 149 51q51 43 52 109q0 57 -42 82.5t-102 25.5h-55l16 86h62q68 0 114 34t46 98q0 55 -40 87.5t-102 32.5q-154 0 -196 -129h-103q29 100 113 156.5t201 56.5q96 0 161.5 -55t65.5 -137 q0 -63 -40 -115.5t-101 -71.5q43 -12 70.5 -55t27.5 -94q0 -117 -104 -188q-86 -59 -203 -60q-111 0 -182.5 65t-71.5 165z" />
<glyph unicode="&#xb4;" horiz-adv-x="493" d="M156 1212l364 238l43 -90l-383 -203z" />
<glyph unicode="&#xb5;" horiz-adv-x="1210" d="M176 -410v1434h103v-670q0 -281 264 -280q176 0 258 126t82 312v512h102v-1024h-90l-12 186q-43 -96 -140.5 -154.5t-205.5 -58.5q-174 0 -258 101v-484h-103z" />
<glyph unicode="&#xb6;" horiz-adv-x="1376" d="M240 1053q0 172 126 284.5t306 112.5h690l-16 -98h-205l-285 -1608h-100l284 1608h-284l-285 -1608h-100l174 977q-127 8 -216 106.5t-89 225.5z" />
<glyph unicode="&#xb7;" horiz-adv-x="577" d="M145 522l33 185h180l-32 -185h-181z" />
<glyph unicode="&#xb8;" horiz-adv-x="352" d="M-82 -369l193 275h100l-193 -328z" />
<glyph unicode="&#xb9;" horiz-adv-x="657" d="M201 1186l20 110l232 156h92l-131 -745h-97l111 630z" />
<glyph unicode="&#xba;" horiz-adv-x="999" d="M197 1038q0 213 106 320q92 92 232 92q137 0 229 -92q106 -106 106 -319.5t-106 -319.5q-92 -92 -229 -92q-139 0 -232 92q-106 106 -106 319zM281 1038.5q0 -182.5 79 -264.5q61 -66 175 -65q109 0 170 65q82 84 81.5 264.5t-81.5 264.5q-63 68 -170 67q-111 0 -175 -67 q-79 -82 -79 -264.5z" />
<glyph unicode="&#xbb;" horiz-adv-x="1032" d="M49 201l346 397l-207 395l72 49l252 -452l-408 -438zM473 201l348 397l-209 395l70 49l254 -452l-408 -438z" />
<glyph unicode="&#xbc;" horiz-adv-x="1714" d="M184 31l1313 1442l64 -54l-1313 -1444zM281 1186l18 110l233 156h93l-133 -745h-97l113 630zM870 166l19 100l407 494h113l-416 -504h275l30 170h97l-31 -170h131l-16 -90h-131l-29 -166h-94l26 166h-381z" />
<glyph unicode="&#xbd;" horiz-adv-x="1843" d="M184 31l1313 1442l64 -54l-1313 -1444zM281 1186l18 110l233 156h93l-133 -745h-97l113 630zM989 0l12 76l373 295q115 88 115 170q0 47 -34 81.5t-95 34.5q-80 0 -131 -47t-64 -123h-98q20 115 102 189t207 74q86 0 148.5 -58.5t62.5 -136.5q0 -47 -13 -85t-50 -77 t-54.5 -54t-72.5 -58l-246 -191h385l-14 -90h-533z" />
<glyph unicode="&#xbe;" horiz-adv-x="1824" d="M205 920q0 6 1 14t1 14h94q0 -4 -1 -12t-1 -12q0 -68 49 -108t121 -40q92 0 149 51q51 43 52 109q0 57 -42 82.5t-102 25.5h-55l16 86h62q68 0 114 34t46 98q0 55 -40 87.5t-102 32.5q-154 0 -196 -129h-103q29 100 113 156.5t201 56.5q96 0 161.5 -55t65.5 -137 q0 -63 -40 -115.5t-101 -71.5q43 -12 70.5 -55t27.5 -94q0 -117 -104 -188q-86 -59 -203 -60q-111 0 -182.5 65t-71.5 165zM295 31l1313 1442l63 -54l-1313 -1444zM979 166l18 100l410 494h113l-418 -504h274l31 170h96l-30 -170h131l-17 -90h-131l-29 -166h-96l29 166h-381 z" />
<glyph unicode="&#xbf;" horiz-adv-x="995" d="M-43 -104q0 254 289 403q104 55 151 124t66 183l108 2q-29 -162 -90 -243.5t-207 -161.5q-201 -109 -200 -303q0 -119 84 -183.5t207 -64.5q135 0 228 77.5t116 211.5h110q-31 -178 -156.5 -286t-306.5 -108q-225 0 -331 150q-68 95 -68 199zM483 864l27 160h160 l-27 -160h-160z" />
<glyph unicode="&#xc0;" horiz-adv-x="1245" d="M-113 0l809 1452h105l299 -1452h-103l-79 383h-703l-211 -383h-117zM272 483h625l-170 822zM592 1821l65 86l283 -238l-43 -53z" />
<glyph unicode="&#xc1;" horiz-adv-x="1245" d="M-113 0l809 1452h105l299 -1452h-103l-79 383h-703l-211 -383h-117zM272 483h625l-170 822zM539 1628l364 238l43 -90l-383 -203z" />
<glyph unicode="&#xc2;" horiz-adv-x="1245" d="M-113 0l809 1452h103l303 -1452h-105l-79 383h-703l-211 -383h-117zM272 483h625l-170 822zM459 1645l286 217h101l205 -228l-76 -61l-189 209l-274 -209z" />
<glyph unicode="&#xc3;" horiz-adv-x="1245" d="M-113 0l809 1452h105l299 -1452h-103l-79 383h-703l-211 -383h-117zM272 483h625l-170 822zM487 1722q86 78 168 78q53 0 133 -42t121 -42q51 0 105 47l43 -55q-90 -78 -166 -78q-49 0 -133 42t-127 42q-47 0 -103 -47z" />
<glyph unicode="&#xc4;" horiz-adv-x="1245" d="M-113 0l809 1452h105l299 -1452h-103l-79 383h-703l-211 -383h-117zM272 483h625l-170 822zM504 1624l22 129h123l-22 -129h-123zM881 1624l22 129h125l-22 -129h-125z" />
<glyph unicode="&#xc5;" horiz-adv-x="1245" d="M-113 0l779 1397q-63 25 -99.5 80t-36.5 127q0 98 62.5 160.5t167 62.5t167 -62.5t62.5 -160.5q0 -84 -46 -144.5t-128 -75.5l285 -1384h-103l-79 383h-703l-211 -383h-117zM272 483h625l-170 822zM612 1601.5q0 -63.5 41 -105.5t106.5 -42t106.5 44t41 107.5t-41 105.5 t-106.5 42t-106.5 -44t-41 -107.5z" />
<glyph unicode="&#xc6;" horiz-adv-x="1798" d="M-137 0l901 1452h1063l-19 -98h-712l-92 -529h610l-19 -100h-610l-111 -625h713l-18 -100h-817l71 406h-594l-247 -406h-119zM293 504h549l149 850h-178z" />
<glyph unicode="&#xc7;" horiz-adv-x="1255" d="M92 506q0 219 64.5 442t191.5 355q170 176 400 176q207 0 337 -138q135 -141 136 -337h-111q0 158 -102 266q-98 104 -267 104q-172 0 -309 -137q-113 -113 -171 -322.5t-58 -410.5q0 -211 125 -330q102 -96 266 -96q160 0 278 112q100 94 136 228h110 q-35 -160 -153 -283q-158 -162 -379 -162q-217 0 -353 140q-141 145 -141 393zM297 -369l192 275h101l-193 -328z" />
<glyph unicode="&#xc8;" horiz-adv-x="1263" d="M92 0l258 1452h920l-19 -102h-813l-94 -533h721l-18 -104h-721l-109 -611h823l-18 -102h-930zM627 1782l65 86l283 -238l-43 -53z" />
<glyph unicode="&#xc9;" horiz-adv-x="1263" d="M92 0l258 1452h920l-19 -102h-813l-94 -533h721l-18 -104h-721l-109 -611h823l-18 -102h-930zM674 1628l364 238l43 -90l-383 -203z" />
<glyph unicode="&#xca;" horiz-adv-x="1263" d="M92 0l258 1452h920l-19 -102h-813l-94 -533h721l-18 -104h-721l-109 -611h823l-18 -102h-930zM528 1645l287 217h100l205 -228l-76 -61l-188 209l-274 -209z" />
<glyph unicode="&#xcb;" horiz-adv-x="1263" d="M92 0l258 1452h920l-19 -102h-813l-94 -533h721l-18 -104h-721l-109 -611h823l-18 -102h-930zM582 1665l22 129h123l-22 -129h-123zM958 1665l23 129h125l-23 -129h-125z" />
<glyph unicode="&#xcc;" horiz-adv-x="550" d="M92 0l258 1452h109l-258 -1452h-109zM262 1821l66 86l282 -238l-43 -53z" />
<glyph unicode="&#xcd;" horiz-adv-x="550" d="M92 0l258 1452h109l-258 -1452h-109zM262 1636l328 215l39 -82l-344 -182z" />
<glyph unicode="&#xce;" horiz-adv-x="550" d="M92 0l258 1452h109l-258 -1452h-109zM125 1645l287 217h100l205 -228l-76 -61l-188 209l-275 -209z" />
<glyph unicode="&#xcf;" horiz-adv-x="550" d="M92 0l258 1452h109l-258 -1452h-109zM240 1665l22 129h123l-23 -129h-122zM514 1665l23 129h125l-23 -129h-125z" />
<glyph unicode="&#xd0;" horiz-adv-x="1368" d="M66 711l14 86h156l116 655h465q215 0 334 -134t119 -353q0 -233 -74 -470t-221 -360q-166 -135 -395 -135h-486l127 711h-155zM219 104h379q174 0 303 107q125 102 191.5 319.5t66.5 419.5q0 182 -88 290t-266 108h-365l-98 -551h348l-14 -86h-348z" />
<glyph unicode="&#xd1;" horiz-adv-x="1511" d="M92 0l258 1452h111l624 -1284l228 1284h106l-258 -1452h-110l-625 1288l-227 -1288h-107zM618 1669q86 78 168 78q53 0 133 -42t121 -42q51 0 105 47l43 -55q-90 -78 -166 -78q-49 0 -133 42t-127 42q-47 0 -103 -47z" />
<glyph unicode="&#xd2;" horiz-adv-x="1343" d="M92 506q0 211 69.5 443.5t194.5 361.5q162 168 392 168q215 0 354 -144q141 -143 141 -397q0 -213 -67.5 -440.5t-192.5 -356.5q-162 -168 -391 -168q-217 0 -356 144q-144 147 -144 389zM203 504q0 -211 125 -326q106 -100 268 -100q174 0 303 129q111 111 172.5 327 t61.5 406q0 219 -123 334q-106 100 -267 100q-174 0 -303 -129q-111 -111 -174 -331t-63 -410zM670 1798l65 86l283 -237l-43 -54z" />
<glyph unicode="&#xd3;" horiz-adv-x="1343" d="M92 506q0 211 69.5 443.5t194.5 361.5q162 168 392 168q215 0 354 -144q141 -143 141 -397q0 -213 -67.5 -440.5t-192.5 -356.5q-162 -168 -391 -168q-217 0 -356 144q-144 147 -144 389zM203 504q0 -211 125 -326q106 -100 268 -100q174 0 303 129q111 111 172.5 327 t61.5 406q0 219 -123 334q-106 100 -267 100q-174 0 -303 -129q-111 -111 -174 -331t-63 -410zM635 1628l364 238l43 -90l-383 -203z" />
<glyph unicode="&#xd4;" horiz-adv-x="1343" d="M92 506q0 211 69.5 443.5t194.5 361.5q162 168 392 168q215 0 354 -144q141 -143 141 -397q0 -213 -67.5 -440.5t-192.5 -356.5q-162 -168 -391 -168q-217 0 -356 144q-144 147 -144 389zM203 504q0 -211 125 -326q106 -100 268 -100q174 0 303 129q111 111 172.5 327 t61.5 406q0 219 -123 334q-106 100 -267 100q-174 0 -303 -129q-111 -111 -174 -331t-63 -410zM524 1645l287 217h100l205 -228l-76 -61l-188 209l-274 -209z" />
<glyph unicode="&#xd5;" horiz-adv-x="1343" d="M92 506q0 211 69.5 443.5t194.5 361.5q162 168 392 168q215 0 354 -144q141 -143 141 -397q0 -213 -67.5 -440.5t-192.5 -356.5q-162 -168 -391 -168q-217 0 -356 144q-144 147 -144 389zM203 504q0 -211 125 -326q106 -100 268 -100q174 0 303 129q111 111 172.5 327 t61.5 406q0 219 -123 334q-106 100 -267 100q-174 0 -303 -129q-111 -111 -174 -331t-63 -410zM549 1722q86 78 168 78q53 0 133 -42t121 -42q51 0 104 47l43 -55q-90 -78 -166 -78q-49 0 -133 42t-127 42q-47 0 -102 -47z" />
<glyph unicode="&#xd6;" horiz-adv-x="1343" d="M92 506q0 211 69.5 443.5t194.5 361.5q162 168 392 168q215 0 354 -144q141 -143 141 -397q0 -213 -67.5 -440.5t-192.5 -356.5q-162 -168 -391 -168q-217 0 -356 144q-144 147 -144 389zM203 504q0 -211 125 -326q106 -100 268 -100q174 0 303 129q111 111 172.5 327 t61.5 406q0 219 -123 334q-106 100 -267 100q-174 0 -303 -129q-111 -111 -174 -331t-63 -410zM582 1624l22 129h123l-22 -129h-123zM958 1624l23 129h125l-23 -129h-125z" />
<glyph unicode="&#xd7;" horiz-adv-x="1378" d="M147 129l480 479l-480 477l64 64l477 -477l479 477l64 -64l-479 -477l479 -479l-64 -63l-479 479l-477 -479z" />
<glyph unicode="&#xd8;" horiz-adv-x="1347" d="M92 506q0 211 69.5 443.5t194.5 361.5q162 168 392 168q164 0 288 -86l115 182l70 -41l-121 -195l4 -4q143 -143 143 -389q0 -211 -69.5 -443.5t-194.5 -361.5q-162 -168 -391 -168q-166 0 -291 88l-129 -204l-70 39l136 217l-2 4q-144 143 -144 389zM203 504 q0 -180 96 -295l680 1091q-100 74 -236 74q-174 0 -303 -129q-111 -111 -174 -331t-63 -410zM356 154q98 -76 240 -76q174 0 303 129q111 111 174.5 331t63.5 410q0 184 -97 297z" />
<glyph unicode="&#xd9;" horiz-adv-x="1419" d="M152 416q0 49 10 116l164 920h106l-162 -922q-10 -61 -10 -110q0 -168 96 -256q98 -88 258 -88q188 0 312 123q123 119 159 331l164 922h107l-164 -920q-45 -250 -180 -393q-160 -166 -406 -166q-188 0 -325 119q-129 117 -129 324zM653 1796l66 86l282 -237l-43 -54z " />
<glyph unicode="&#xda;" horiz-adv-x="1419" d="M152 416q0 49 10 116l164 920h106l-162 -922q-10 -61 -10 -110q0 -168 96 -256q98 -88 258 -88q188 0 312 123q123 119 159 331l164 922h107l-164 -920q-45 -250 -180 -393q-160 -166 -406 -166q-188 0 -325 119q-129 117 -129 324zM676 1628l364 238l43 -90l-383 -203z " />
<glyph unicode="&#xdb;" horiz-adv-x="1419" d="M152 416q0 49 10 116l164 920h106l-162 -922q-10 -61 -10 -110q0 -168 96 -256q98 -88 258 -88q188 0 312 123q123 119 159 331l164 922h107l-164 -920q-45 -250 -180 -393q-160 -166 -406 -166q-188 0 -325 119q-129 117 -129 324zM571 1645l287 217h100l205 -228 l-76 -61l-188 209l-274 -209z" />
<glyph unicode="&#xdc;" horiz-adv-x="1419" d="M152 416q0 51 10 116l164 920h106l-162 -922q-10 -61 -10 -110q0 -168 96 -256q98 -88 258 -88q188 0 312 123q123 119 159 331l164 922h107l-164 -920q-45 -250 -180 -393q-160 -166 -406 -166q-188 0 -325 119q-129 117 -129 324zM604 1626l23 129h123l-23 -129h-123z M981 1626l23 129h124l-22 -129h-125z" />
<glyph unicode="&#xdd;" horiz-adv-x="1083" d="M100 1452h109l305 -772l576 772h118l-655 -877l-102 -575h-107l102 575zM459 1608l364 237l43 -90l-383 -203z" />
<glyph unicode="&#xde;" horiz-adv-x="1193" d="M90 0l256 1452h107l-50 -285h355q178 0 297 -101t119 -278q0 -238 -156 -357.5t-400 -119.5h-366l-55 -311h-107zM270 414h367q190 0 307 94t117 280q0 135 -91 206t-231 71h-354z" />
<glyph unicode="&#xdf;" horiz-adv-x="1208" d="M88 926l16 98h185l10 63q31 178 146.5 285t289.5 107q147 0 251 -92.5t104 -237.5q0 -115 -71 -225.5t-177 -135.5q106 -39 167.5 -130t61.5 -205q0 -205 -141.5 -338t-347.5 -133q-86 0 -197 28l16 99q119 -25 185 -25q166 0 271.5 104.5t105.5 270.5q0 129 -91.5 207.5 t-218.5 78.5h-82l19 99h117q125 0 200.5 85t75.5 210q0 111 -77 176t-189 65q-125 0 -209 -86t-107 -215l-194 -1079h-101l164 926h-182z" />
<glyph unicode="&#xe0;" horiz-adv-x="1148" d="M57 406q0 143 47.5 278t137.5 229q137 137 325 138q113 0 194 -63.5t107 -137.5l50 174h90l-183 -1024h-84l19 176q-39 -84 -132 -143.5t-198 -59.5q-90 0 -169 42t-128 112q-76 109 -76 279zM160 416q0 -133 51 -219q72 -123 229 -123q117 0 215 98q80 80 124 203 t44 239q0 156 -57 236q-74 100 -213 100q-141 0 -238 -100q-74 -74 -114.5 -192.5t-40.5 -241.5zM446 1354l66 86l283 -238l-43 -53z" />
<glyph unicode="&#xe1;" horiz-adv-x="1148" d="M57 406q0 143 47.5 278t137.5 229q137 137 325 138q113 0 194 -63.5t107 -137.5l50 174h90l-183 -1024h-84l19 176q-39 -84 -132 -143.5t-198 -59.5q-90 0 -169 42t-128 112q-76 109 -76 279zM160 416q0 -133 51 -219q72 -123 229 -123q117 0 215 98q80 80 124 203 t44 239q0 156 -57 236q-74 100 -213 100q-141 0 -238 -100q-74 -74 -114.5 -192.5t-40.5 -241.5zM449 1221l364 237l43 -90l-383 -203z" />
<glyph unicode="&#xe2;" horiz-adv-x="1148" d="M57 406q0 143 47.5 278t137.5 229q137 137 325 138q113 0 194 -63.5t107 -137.5l50 174h90l-183 -1024h-84l19 176q-39 -84 -132 -143.5t-198 -59.5q-90 0 -169 42t-128 112q-76 109 -76 279zM160 416q0 -133 51 -219q72 -123 229 -123q117 0 215 98q80 80 124 203 t44 239q0 156 -57 236q-74 100 -213 100q-141 0 -238 -100q-74 -74 -114.5 -192.5t-40.5 -241.5zM346 1235l256 227h96l174 -227l-77 -59l-154 200l-238 -205z" />
<glyph unicode="&#xe3;" horiz-adv-x="1148" d="M57 406q0 143 47.5 278t137.5 229q137 137 325 138q113 0 194 -63.5t107 -137.5l50 174h90l-183 -1024h-84l19 176q-39 -84 -132 -143.5t-198 -59.5q-90 0 -169 42t-128 112q-76 109 -76 279zM160 416q0 -133 51 -219q72 -123 229 -123q117 0 215 98q80 80 124 203 t44 239q0 156 -57 236q-74 100 -213 100q-141 0 -238 -100q-74 -74 -114.5 -192.5t-40.5 -241.5zM367 1335q86 78 168 78q51 0 133 -42t120 -42q51 0 105 47l43 -55q-90 -78 -166 -78q-49 0 -133 42t-127 42q-47 0 -102 -47z" />
<glyph unicode="&#xe4;" horiz-adv-x="1148" d="M57 406q0 143 47.5 278t137.5 229q137 137 325 138q113 0 194 -63.5t107 -137.5l50 174h90l-183 -1024h-84l19 176q-39 -84 -132 -143.5t-198 -59.5q-90 0 -169 42t-128 112q-76 109 -76 279zM160 416q0 -133 51 -219q72 -123 229 -123q117 0 215 98q80 80 124 203 t44 239q0 156 -57 236q-74 100 -213 100q-141 0 -238 -100q-74 -74 -114.5 -192.5t-40.5 -241.5zM410 1276l22 129h123l-23 -129h-122zM786 1276l23 129h125l-23 -129h-125z" />
<glyph unicode="&#xe5;" horiz-adv-x="1148" d="M57 406q0 143 47.5 278t137.5 229q137 137 325 138q113 0 194 -63.5t107 -137.5l50 174h90l-183 -1024h-84l19 176q-39 -84 -132 -143.5t-198 -59.5q-90 0 -169 42t-128 112q-76 109 -76 279zM160 416q0 -133 51 -219q72 -123 229 -123q117 0 215 98q80 80 124 203 t44 239q0 156 -57 236q-74 100 -213 100q-141 0 -238 -100q-74 -74 -114.5 -192.5t-40.5 -241.5zM428 1372q0 94 59.5 154.5t160 60.5t159.5 -60.5t59 -154.5t-63.5 -154.5t-155.5 -60.5t-155.5 60.5t-63.5 154.5zM506 1372.5q0 -59.5 39 -101.5t102.5 -42t101 42 t37.5 101.5t-37.5 101.5t-101 42t-102.5 -42t-39 -101.5z" />
<glyph unicode="&#xe6;" horiz-adv-x="1759" d="M37 242q0 147 109.5 243.5t283.5 96.5h348l19 102q6 31 6 59q0 96 -59.5 153.5t-165.5 57.5q-113 0 -196 -55t-114 -158h-102q41 147 154.5 228.5t269.5 81.5q100 0 187 -55.5t106 -151.5q137 207 374 207q158 0 263 -105q117 -117 116 -323q0 -43 -10 -136h-764 q-2 -20 -2 -59q0 -152 77 -254t226 -102q96 0 178 59t117 150h109q-18 -94 -113 -185q-129 -123 -301 -123q-158 0 -260 103q-84 84 -109 200q-41 -100 -122 -176q-135 -127 -330 -127q-115 0 -205 74t-90 195zM139 250q0 -82 59.5 -131t153.5 -49q147 0 253 107.5 t145 260.5l12 49h-342q-123 0 -202 -65.5t-79 -171.5zM874 582h658q2 14 2 43q0 147 -74 238t-215 91q-143 0 -240.5 -107t-130.5 -265z" />
<glyph unicode="&#xe7;" horiz-adv-x="1024" d="M57 395q0 152 49.5 293t147.5 234q133 129 309 129q160 0 264 -101q106 -102 107 -258v-14h-109v6q0 115 -75.5 190.5t-198.5 75.5q-129 0 -229 -100q-80 -78 -120 -201t-40 -250q0 -164 100 -254q78 -72 199 -71q102 0 184 62.5t119 162.5h108q-41 -143 -156.5 -234.5 t-260.5 -91.5q-168 0 -277 109q-121 116 -121 313zM168 -373l190 275h101l-193 -328z" />
<glyph unicode="&#xe8;" horiz-adv-x="1077" d="M57 422q0 311 179 491q137 137 329 138q164 0 275 -111q119 -119 118 -317q0 -41 -16 -136h-782q-2 -20 -2 -59q0 -172 92 -270q80 -84 221 -84q98 0 184 58t121 149h109q-18 -94 -113 -185q-129 -123 -311 -123q-174 0 -285 117q-119 125 -119 332zM174 582h680 q2 14 2 43q0 143 -81 235t-222 92q-152 0 -268 -131q-80 -92 -111 -239zM467 1354l65 86l283 -238l-43 -53z" />
<glyph unicode="&#xe9;" horiz-adv-x="1077" d="M57 422q0 311 179 491q137 137 329 138q164 0 275 -111q119 -119 118 -317q0 -41 -16 -136h-782q-2 -20 -2 -59q0 -172 92 -270q80 -84 221 -84q98 0 184 58t121 149h109q-18 -94 -113 -185q-129 -123 -311 -123q-174 0 -285 117q-119 125 -119 332zM174 582h680 q2 14 2 43q0 143 -81 235t-222 92q-152 0 -268 -131q-80 -92 -111 -239zM428 1221l365 237l43 -90l-383 -203z" />
<glyph unicode="&#xea;" horiz-adv-x="1077" d="M57 422q0 311 179 491q137 137 329 138q164 0 275 -111q119 -119 118 -317q0 -41 -16 -136h-782q-2 -20 -2 -59q0 -172 92 -270q80 -84 221 -84q98 0 184 58t121 149h109q-18 -94 -113 -185q-129 -123 -311 -123q-174 0 -285 117q-119 125 -119 332zM174 582h680 q2 14 2 43q0 143 -81 235t-222 92q-152 0 -268 -131q-80 -92 -111 -239zM313 1235l256 227h97l174 -227l-78 -59l-154 200l-237 -205z" />
<glyph unicode="&#xeb;" horiz-adv-x="1077" d="M57 422q0 311 179 491q137 137 329 138q164 0 275 -111q119 -119 118 -317q0 -41 -16 -136h-782q-2 -20 -2 -59q0 -172 92 -270q80 -84 221 -84q98 0 184 58t121 149h109q-18 -94 -113 -185q-129 -123 -311 -123q-174 0 -285 117q-119 125 -119 332zM174 582h680 q2 14 2 43q0 143 -81 235t-222 92q-152 0 -268 -131q-80 -92 -111 -239zM385 1276l23 129h122l-22 -129h-123zM762 1276l22 129h125l-22 -129h-125z" />
<glyph unicode="&#xec;" horiz-adv-x="493" d="M72 0l182 1024h108l-184 -1024h-106zM186 1436l58 77l254 -213l-37 -49z" />
<glyph unicode="&#xed;" horiz-adv-x="493" d="M72 0l182 1024h108l-184 -1024h-106zM166 1309l328 215l38 -82l-344 -182z" />
<glyph unicode="&#xee;" horiz-adv-x="493" d="M66 1235l256 227h96l174 -227l-78 -59l-154 200l-237 -205zM72 0l182 1024h108l-184 -1024h-106z" />
<glyph unicode="&#xef;" horiz-adv-x="493" d="M72 0l182 1024h108l-184 -1024h-106zM154 1323l22 129h123l-23 -129h-122zM428 1323l23 129h124l-22 -129h-125z" />
<glyph unicode="&#xf0;" horiz-adv-x="1105" d="M66 401q0 164 57 312.5t174 240.5q125 96 278 97q115 0 181 -56l-90 230h-265l15 82h219l-68 172h105l65 -172h209l-14 -82h-162l156 -400q41 -102 41 -202q0 -164 -57.5 -312.5t-174.5 -240.5q-125 -96 -278 -97q-182 0 -295 138q-96 118 -96 290zM170 408 q0 -137 70 -230q84 -104 227 -104q113 0 211 80q90 76 137 202.5t47 259.5q0 141 -67 230q-84 104 -230 104q-113 0 -211 -80q-90 -76 -137 -202.5t-47 -259.5z" />
<glyph unicode="&#xf1;" horiz-adv-x="1187" d="M72 0l180 1024h92l-20 -186q59 96 166.5 154.5t216.5 58.5q139 0 220 -83t81 -214q0 -37 -7 -78l-120 -676h-103l119 674q6 35 6 65q0 94 -53 152.5t-162 58.5q-168 0 -279.5 -131t-142.5 -307l-92 -512h-102zM410 1341q86 78 168 78q53 0 133 -42t120 -42q51 0 105 47 l43 -55q-90 -78 -166 -78q-49 0 -133 42t-127 42q-47 0 -102 -47z" />
<glyph unicode="&#xf2;" horiz-adv-x="1093" d="M57 401q0 164 57.5 312.5t174.5 240.5q125 96 278 97q184 0 295 -136q96 -119 96 -292q0 -164 -57 -312.5t-174 -240.5q-125 -96 -278 -97q-184 0 -295 136q-97 118 -97 292zM162 408q0 -137 69 -230q84 -104 228 -104q113 0 211 80q90 76 137 202.5t47 259.5 q0 137 -68 228q-86 106 -229 106q-113 0 -211 -80q-90 -76 -137 -202.5t-47 -259.5zM446 1354l66 86l283 -238l-43 -53z" />
<glyph unicode="&#xf3;" horiz-adv-x="1093" d="M57 401q0 164 57.5 312.5t174.5 240.5q125 96 278 97q184 0 295 -136q96 -119 96 -292q0 -164 -57 -312.5t-174 -240.5q-125 -96 -278 -97q-184 0 -295 136q-97 118 -97 292zM162 408q0 -137 69 -230q84 -104 228 -104q113 0 211 80q90 76 137 202.5t47 259.5 q0 137 -68 228q-86 106 -229 106q-113 0 -211 -80q-90 -76 -137 -202.5t-47 -259.5zM449 1221l364 237l43 -90l-383 -203z" />
<glyph unicode="&#xf4;" horiz-adv-x="1093" d="M57 401q0 164 57.5 312.5t174.5 240.5q125 96 278 97q184 0 295 -136q96 -119 96 -292q0 -164 -57 -312.5t-174 -240.5q-125 -96 -278 -97q-184 0 -295 136q-97 118 -97 292zM162 408q0 -137 69 -230q84 -104 228 -104q113 0 211 80q90 76 137 202.5t47 259.5 q0 137 -68 228q-86 106 -229 106q-113 0 -211 -80q-90 -76 -137 -202.5t-47 -259.5zM348 1235l256 227h96l174 -227l-77 -59l-154 200l-237 -205z" />
<glyph unicode="&#xf5;" horiz-adv-x="1093" d="M57 401q0 164 57.5 312.5t174.5 240.5q125 96 278 97q184 0 295 -136q96 -119 96 -292q0 -164 -57 -312.5t-174 -240.5q-125 -96 -278 -97q-184 0 -295 136q-97 118 -97 292zM162 408q0 -137 69 -230q84 -104 228 -104q113 0 211 80q90 76 137 202.5t47 259.5 q0 137 -68 228q-86 106 -229 106q-113 0 -211 -80q-90 -76 -137 -202.5t-47 -259.5zM367 1335q86 78 168 78q51 0 133 -42t120 -42q51 0 105 47l43 -55q-90 -78 -166 -78q-49 0 -133 42t-127 42q-47 0 -102 -47z" />
<glyph unicode="&#xf6;" horiz-adv-x="1093" d="M57 401q0 164 57.5 312.5t174.5 240.5q125 96 278 97q184 0 295 -136q96 -119 96 -292q0 -164 -57 -312.5t-174 -240.5q-125 -96 -278 -97q-184 0 -295 136q-97 118 -97 292zM162 408q0 -137 69 -230q84 -104 228 -104q113 0 211 80q90 76 137 202.5t47 259.5 q0 137 -68 228q-86 106 -229 106q-113 0 -211 -80q-90 -76 -137 -202.5t-47 -259.5zM410 1276l22 129h123l-23 -129h-122zM786 1276l23 129h125l-23 -129h-125z" />
<glyph unicode="&#xf7;" horiz-adv-x="1333" d="M168 567v95h997v-95h-997zM580 100v170h161v-170h-161zM580 967v172h161v-172h-161z" />
<glyph unicode="&#xf8;" horiz-adv-x="1093" d="M57 401q0 164 57.5 312.5t174.5 240.5q125 96 278 97q109 0 199 -54l113 181l67 -37l-119 -189l35 -37q96 -119 96 -292q0 -164 -57 -312.5t-174 -240.5q-125 -96 -278 -97q-115 0 -203 56l-119 -189l-68 35l125 199l-30 35q-97 118 -97 292zM162 408q0 -137 69 -230 l11 -12l469 745q-66 39 -154 39q-113 0 -211 -80q-90 -76 -137 -202.5t-47 -259.5zM301 115q63 -41 158 -41q113 0 211 80q90 76 137 202.5t47 259.5q0 137 -68 228l-16 18z" />
<glyph unicode="&#xf9;" horiz-adv-x="1171" d="M109 268q0 27 8 80l119 676h104l-119 -670q-6 -37 -6 -69q0 -94 51 -152.5t158 -58.5q168 0 275.5 130t138.5 308l90 512h102l-180 -1024h-90l18 186q-59 -96 -161.5 -154.5t-210.5 -58.5q-139 0 -218 81t-79 214zM487 1354l66 86l283 -238l-43 -53z" />
<glyph unicode="&#xfa;" horiz-adv-x="1171" d="M109 268q0 27 8 80l119 676h104l-119 -670q-6 -37 -6 -69q0 -94 51 -152.5t158 -58.5q168 0 275.5 130t138.5 308l90 512h102l-180 -1024h-90l18 186q-59 -96 -161.5 -154.5t-210.5 -58.5q-139 0 -218 81t-79 214zM479 1217l365 237l43 -90l-383 -203z" />
<glyph unicode="&#xfb;" horiz-adv-x="1171" d="M109 268q0 27 8 80l119 676h104l-119 -670q-6 -37 -6 -69q0 -94 51 -152.5t158 -58.5q168 0 275.5 130t138.5 308l90 512h102l-180 -1024h-90l18 186q-59 -96 -161.5 -154.5t-210.5 -58.5q-139 0 -218 81t-79 214zM395 1235l256 227h97l174 -227l-78 -59l-154 200 l-237 -205z" />
<glyph unicode="&#xfc;" horiz-adv-x="1171" d="M109 268q0 27 8 80l119 676h104l-119 -670q-6 -37 -6 -69q0 -94 51 -152.5t158 -58.5q168 0 275.5 130t138.5 308l90 512h102l-180 -1024h-90l18 186q-59 -96 -161.5 -154.5t-210.5 -58.5q-139 0 -218 81t-79 214zM412 1276l22 129h123l-22 -129h-123zM788 1276l23 129 h125l-23 -129h-125z" />
<glyph unicode="&#xfd;" horiz-adv-x="980" d="M-156 -365l17 93q88 -61 157 -62q59 0 98.5 31t73.5 90l119 209l-235 1028h108l201 -909l504 909h110l-723 -1288q-90 -164 -247 -164q-103 0 -183 63zM385 1196l365 238l43 -91l-383 -202z" />
<glyph unicode="&#xfe;" horiz-adv-x="1165" d="M-2 -410l336 1889h102l-106 -596q39 76 133 122t186 46q176 0 278.5 -133.5t102.5 -315.5q0 -160 -48 -297t-161.5 -234.5t-277.5 -97.5q-90 0 -171 45t-128 121q-23 37 -31 66l-113 -615h-102zM254 412q0 -143 82 -240.5t221 -97.5q127 0 215 85t122 197.5t34 235.5 q0 150 -77 255t-220 105q-102 0 -189 -67q-131 -100 -163 -269l-15 -71q-10 -57 -10 -133z" />
<glyph unicode="&#xff;" horiz-adv-x="980" d="M-156 -365l17 93q88 -61 157 -62q59 0 98.5 31t73.5 90l119 209l-235 1028h108l201 -909l504 909h110l-723 -1288q-90 -164 -247 -164q-103 0 -183 63zM295 1276l22 129h123l-22 -129h-123zM672 1276l22 129h125l-22 -129h-125z" />
<glyph unicode="&#x152;" horiz-adv-x="2105" d="M92 518q0 209 67.5 436.5t190.5 356.5q158 168 385 168q150 0 276 -85t163 -225l51 283h909l-18 -102h-803l-94 -533h706l-18 -104h-707l-108 -611h813l-19 -102h-919l37 201q-63 -102 -173 -165t-247 -63q-236 0 -364 152.5t-128 392.5zM201 516q0 -195 97 -316.5 t290 -121.5q168 0 297 129q137 141 194 430l25 129q12 63 12 182q0 211 -121 326q-104 100 -264 100q-168 0 -297 -129q-109 -113 -171 -327t-62 -402z" />
<glyph unicode="&#x153;" horiz-adv-x="1826" d="M57 401q0 164 56.5 312.5t171.5 240.5q123 96 272 97q156 0 262 -107q72 -72 90 -164q37 86 105 148q133 123 309 123q158 0 268 -111q117 -121 117 -317q0 -41 -16 -136h-766q-2 -20 -2 -59q0 -174 90 -270q80 -84 217 -84q96 0 180 58t117 147h106q-35 -113 -108 -183 q-127 -123 -305 -123q-133 0 -235.5 77t-135.5 206q-57 -131 -163.5 -207t-246.5 -76q-182 0 -288 136q-95 116 -95 292zM162 408q0 -141 67 -230q80 -104 222 -104q113 0 206 80q88 76 134.5 202.5t46.5 259.5q0 141 -66 228q-82 106 -225 106q-113 0 -207 -80 q-88 -76 -133 -202.5t-45 -259.5zM940 582h664q2 14 2 43q0 145 -78 236t-217 91q-92 0 -150.5 -32.5t-111.5 -96.5q-78 -89 -109 -241z" />
<glyph unicode="&#x178;" horiz-adv-x="1083" d="M100 1452h109l305 -772l576 772h118l-655 -877l-102 -575h-107l102 575zM399 1636l23 129h123l-23 -129h-123zM776 1636l23 129h125l-23 -129h-125z" />
<glyph unicode="&#x2c6;" horiz-adv-x="722" d="M141 1235l256 227h97l174 -227l-78 -59l-154 200l-237 -205z" />
<glyph unicode="&#x2dc;" horiz-adv-x="733" d="M182 1341q86 78 168 78q51 0 133 -42t121 -42q51 0 105 47l43 -55q-90 -78 -166 -78q-49 0 -133 42t-127 42q-47 0 -103 -47z" />
<glyph unicode="&#x2013;" horiz-adv-x="1253" d="M113 571l16 95h950l-16 -95h-950z" />
<glyph unicode="&#x2014;" horiz-adv-x="2242" d="M117 571l16 95h1940l-17 -95h-1939z" />
<glyph unicode="&#x2018;" horiz-adv-x="473" d="M195 1044l32 185q20 109 63.5 166t141.5 84l23 -62q-76 -25 -107 -65.5t-45 -122.5h107l-33 -185h-182z" />
<glyph unicode="&#x2019;" horiz-adv-x="432" d="M188 1079q76 25 107 66t45 123h-107l33 184h183l-33 -184q-20 -109 -63.5 -166.5t-141.5 -83.5z" />
<glyph unicode="&#x201a;" horiz-adv-x="493" d="M-8 -188q76 25 106.5 65.5t44.5 122.5h-106l33 184h182l-33 -184q-20 -109 -63 -166t-142 -84z" />
<glyph unicode="&#x201c;" horiz-adv-x="786" d="M188 1044l33 185q20 109 63.5 166t141.5 84l23 -62q-76 -25 -107 -65.5t-45 -122.5h106l-32 -185h-183zM526 1044l33 185q20 109 63.5 166t141.5 84l22 -62q-76 -25 -106.5 -65.5t-44.5 -122.5h106l-32 -185h-183z" />
<glyph unicode="&#x201d;" horiz-adv-x="765" d="M162 1079q76 25 106.5 66t44.5 123h-106l33 184h182l-33 -184q-20 -109 -63 -166.5t-142 -83.5zM500 1079q76 25 106.5 66t44.5 123h-106l33 184h182l-33 -184q-20 -109 -63 -166.5t-142 -83.5z" />
<glyph unicode="&#x201e;" horiz-adv-x="817" d="M-33 -188q76 25 106.5 65.5t45.5 122.5h-107l33 184h182l-32 -184q-20 -109 -63.5 -166t-141.5 -84zM305 -188q76 25 106.5 65.5t45.5 122.5h-107l33 184h182l-33 -184q-20 -109 -63 -166t-141 -84z" />
<glyph unicode="&#x2022;" horiz-adv-x="868" d="M170 598q0 98 68.5 167t167 69t167 -69t68.5 -167t-68.5 -167t-167 -69t-167 69t-68.5 167z" />
<glyph unicode="&#x2026;" horiz-adv-x="1753" d="M74 0l32 182h177l-33 -182h-176zM659 0l33 182h176l-32 -182h-177zM1245 0l33 182h176l-33 -182h-176z" />
<glyph unicode="&#x2039;" horiz-adv-x="645" d="M102 604l406 438l57 -49l-348 -397l209 -395l-72 -49z" />
<glyph unicode="&#x203a;" horiz-adv-x="624" d="M49 201l348 397l-209 395l70 49l254 -452l-408 -438z" />
<glyph unicode="&#x20ac;" d="M0 526l16 86h152q6 106 27 201h-146l17 86h149q76 285 252 426q160 129 362 129q233 0 379 -131l-53 -82q-133 115 -332 115q-168 0 -299 -113q-133 -113 -198 -344h610l-53 -86h-578q-23 -106 -29 -201h498l-53 -86h-447q0 -209 113 -331q115 -121 318 -121 q139 0 258 61l22 -88q-129 -72 -287 -72q-231 0 -374 134q-154 145 -158 417h-166z" />
<glyph unicode="&#x2122;" horiz-adv-x="1687" d="M166 1370l16 84h557l-16 -84h-236l-129 -741h-86l129 741h-235zM770 629l145 825h127l119 -668l355 668h133l-146 -825h-86l127 723l-377 -705h-59l-127 705l-127 -723h-84z" />
<glyph unicode="&#xe000;" horiz-adv-x="1025" d="M0 1025h1025v-1025h-1025v1025z" />
<glyph unicode="&#xfb01;" horiz-adv-x="1189" d="M94 930l17 94h204l33 188q20 119 99 191t198 72q78 0 191 -35l-17 -92q-109 35 -176 34q-164 0 -197 -182l-30 -176h323l-16 -94h-324l-159 -930h-105l164 930h-205zM768 0l182 1024h109l-182 -1024h-109zM981 1309l25 143h143l-25 -143h-143z" />
<glyph unicode="&#xfb02;" horiz-adv-x="1290" d="M94 930l17 94h204l33 188q20 119 99 191t198 72q78 0 191 -35l-17 -92q-109 35 -176 34q-164 0 -197 -182l-30 -176h323l-16 -94h-324l-159 -930h-105l164 930h-205zM858 150q0 37 4 55l223 1274h103l-223 -1270q-4 -29 -4 -41q0 -82 94 -82q37 0 100 23l-16 -97 q-57 -25 -105 -24q-80 0 -128 42t-48 120z" />
<glyph unicode="&#xfb03;" horiz-adv-x="1902" d="M1481 0l182 1024h108l-184 -1024h-106zM1694 1309l24 143h144l-25 -143h-143zM799 930l17 94h206l33 188q20 119 98 191t197 72q78 0 191 -35l-17 -92q-109 35 -176 34q-160 0 -192 -182l-31 -176h319l-16 -94h-322l-163 -930h-103l164 930h-205zM94 930l17 94h206 l33 188q20 119 98 191t197 72q78 0 191 -35l-17 -92q-109 35 -176 34q-160 0 -192 -182l-31 -176h319l-16 -94h-322l-163 -930h-103l164 930h-205z" />
<glyph unicode="&#xfb04;" horiz-adv-x="1959" d="M1507 150q0 37 4 55l228 1274h102l-227 -1270q-4 -29 -4 -41q0 -82 94 -82q37 0 100 23l-16 -97q-57 -25 -105 -24q-78 0 -127 43t-49 119zM799 930l17 94h206l33 188q20 119 98 191t197 72q78 0 191 -35l-17 -92q-109 35 -176 34q-160 0 -192 -182l-31 -176h319l-16 -94 h-322l-163 -930h-103l164 930h-205zM94 930l17 94h206l33 188q20 119 98 191t197 72q78 0 191 -35l-17 -92q-109 35 -176 34q-160 0 -192 -182l-31 -176h319l-16 -94h-322l-163 -930h-103l164 930h-205z" />
</font>
</defs>
</svg>
